<?xml version="1.0" encoding="utf-8"?>
<!-- Generator: Adobe Illustrator 26.1.0, SVG Export Plug-In . SVG Version: 6.00 Build 0)  -->
<svg version="1.1" xmlns="http://www.w3.org/2000/svg" xmlns:xlink="http://www.w3.org/1999/xlink" x="0px" y="0px"
	 viewBox="0 0 402.33 117.5" style="enable-background:new 0 0 402.33 117.5;" xml:space="preserve">
<style type="text/css">
	.st0{display:none;}
	.st1{display:inline;fill-rule:evenodd;clip-rule:evenodd;}
	.st2{fill-rule:evenodd;clip-rule:evenodd;fill:url(#SVGID_1_);}
	.st3{fill-rule:evenodd;clip-rule:evenodd;fill:url(#SVGID_00000049914107122072758110000006650595982697102263_);}
	.st4{fill-rule:evenodd;clip-rule:evenodd;fill:url(#SVGID_00000144335318840668062060000003715304148071877263_);}
	.st5{fill-rule:evenodd;clip-rule:evenodd;fill:url(#SVGID_00000029028835093143093210000007088677141572313279_);}
	.st6{fill-rule:evenodd;clip-rule:evenodd;fill:url(#SVGID_00000160154030811854418010000005098960430326161286_);}
	.st7{fill-rule:evenodd;clip-rule:evenodd;fill:url(#SVGID_00000025423768909435396950000013981542873513560255_);}
	.st8{fill-rule:evenodd;clip-rule:evenodd;fill:url(#SVGID_00000119079945898895036930000005586670818312740015_);}
	.st9{fill-rule:evenodd;clip-rule:evenodd;fill:url(#SVGID_00000014610067141863699420000001069444926353784239_);}
	.st10{fill-rule:evenodd;clip-rule:evenodd;fill:url(#SVGID_00000178886185148826293500000004402429589526681988_);}
	.st11{fill-rule:evenodd;clip-rule:evenodd;fill:url(#SVGID_00000159470256501439586030000015550264450365817509_);}
	.st12{fill-rule:evenodd;clip-rule:evenodd;fill:url(#SVGID_00000128462361789803087280000014114902923041347510_);}
	.st13{fill-rule:evenodd;clip-rule:evenodd;fill:url(#SVGID_00000016786880665259481360000003497247765063799697_);}
	.st14{fill-rule:evenodd;clip-rule:evenodd;fill:url(#SVGID_00000116926933611494278920000006229326595582663072_);}
	.st15{fill-rule:evenodd;clip-rule:evenodd;fill:url(#SVGID_00000181059125427267293700000012444203430365850248_);}
	.st16{fill-rule:evenodd;clip-rule:evenodd;fill:url(#SVGID_00000114050713785732846770000002638686553739367558_);}
	.st17{fill-rule:evenodd;clip-rule:evenodd;fill:url(#SVGID_00000116209912305697722430000008376469992225193902_);}
	.st18{fill-rule:evenodd;clip-rule:evenodd;fill:url(#SVGID_00000000193356220974299740000000840228541679677599_);}
	.st19{fill-rule:evenodd;clip-rule:evenodd;fill:url(#SVGID_00000040572203676143873690000011165222002782991539_);}
	.st20{fill-rule:evenodd;clip-rule:evenodd;fill:url(#SVGID_00000026140145823373460930000011936158008266174141_);}
	.st21{fill-rule:evenodd;clip-rule:evenodd;fill:url(#SVGID_00000003069295117766017720000011289739571455211676_);}
	.st22{fill-rule:evenodd;clip-rule:evenodd;}
	.st23{fill-rule:evenodd;clip-rule:evenodd;fill:url(#SVGID_00000163053542758088784290000004154704741662967733_);}
	.st24{fill-rule:evenodd;clip-rule:evenodd;fill:url(#SVGID_00000172401737114259520350000009355464605435659925_);}
	.st25{fill-rule:evenodd;clip-rule:evenodd;fill:url(#SVGID_00000183211058120676547310000006421051641407431065_);}
	.st26{fill-rule:evenodd;clip-rule:evenodd;fill:url(#SVGID_00000144310705329313165450000005348784977891825283_);}
	.st27{fill-rule:evenodd;clip-rule:evenodd;fill:url(#SVGID_00000058549558848743016190000017387252115168255888_);}
	.st28{fill-rule:evenodd;clip-rule:evenodd;fill:url(#SVGID_00000047062443115083024730000015021264910086832575_);}
	.st29{fill-rule:evenodd;clip-rule:evenodd;fill:url(#SVGID_00000024686495726901890450000002013297274580281007_);}
	.st30{fill-rule:evenodd;clip-rule:evenodd;fill:#E46A30;}
	.st31{fill-rule:evenodd;clip-rule:evenodd;fill:url(#SVGID_00000128485067709913498060000017424405818548498599_);}
	.st32{fill-rule:evenodd;clip-rule:evenodd;fill:url(#SVGID_00000084520848487080607020000015386750054169626768_);}
	.st33{fill-rule:evenodd;clip-rule:evenodd;fill:url(#SVGID_00000033348896462304557890000001116989871323131820_);}
	.st34{fill-rule:evenodd;clip-rule:evenodd;fill:url(#SVGID_00000061469720854079185860000010769089785553530001_);}
	.st35{fill-rule:evenodd;clip-rule:evenodd;fill:url(#SVGID_00000076597343022233747150000014585372303414917038_);}
	.st36{fill-rule:evenodd;clip-rule:evenodd;fill:url(#SVGID_00000058560115944133827430000018005000105924158380_);}
	.st37{fill:#E46A30;}
	.st38{font-family:'GothamPro-Medium';}
	.st39{font-size:21.5206px;}
	.st40{fill:#FFFFFF;}
	.st41{font-size:31.1996px;}
	.st42{fill-rule:evenodd;clip-rule:evenodd;fill:url(#SVGID_00000047747626172649674700000014499733457561849763_);}
	.st43{fill-rule:evenodd;clip-rule:evenodd;fill:url(#SVGID_00000021814874472514745760000000393643221255707071_);}
	.st44{fill-rule:evenodd;clip-rule:evenodd;fill:url(#SVGID_00000046314994365049268870000005486045326398416053_);}
</style>
<g id="Capa_2" class="st0">
	<rect x="-47.69" y="-4.48" class="st1" width="476.95" height="132.72"/>
</g>
<g id="Capa_1">
	<g>
		<g>
			<linearGradient id="SVGID_1_" gradientUnits="userSpaceOnUse" x1="51.626" y1="48.9973" x2="37.0095" y2="42.7929">
				<stop  offset="0" style="stop-color:#FAA21B"/>
				<stop  offset="1" style="stop-color:#CD1F26"/>
			</linearGradient>
			<path class="st2" d="M44.32,53.49c4.18,0,7.59-3.41,7.59-7.59c0-4.18-3.41-7.59-7.59-7.59c-4.18,0-7.59,3.41-7.59,7.59
				C36.73,50.08,40.14,53.49,44.32,53.49z"/>
			
				<linearGradient id="SVGID_00000093143087089013828020000000863876771573697205_" gradientUnits="userSpaceOnUse" x1="80.26" y1="76.4386" x2="7.5993" y2="45.596">
				<stop  offset="0" style="stop-color:#FAA21B"/>
				<stop  offset="1" style="stop-color:#CD1F26"/>
			</linearGradient>
			<path style="fill-rule:evenodd;clip-rule:evenodd;fill:url(#SVGID_00000093143087089013828020000000863876771573697205_);" d="
				M56.69,68.08c-1.71-1.22-2.94-2.51-4.94-3.42c-2.19-0.99-5.23-1.52-8.23-1.47c-2.7,0.04-5.37,0.55-7.39,1.6
				c-2.61,1.36-5.05,4.38-6.24,7.01c-2.12,4.69-2.28,10.99,0.13,15.62c2.02,3.88,5.51,5.23,5.56,10.24
				c0.06,5.05-3.99,9.19-9.04,9.25c-5.05,0.06-9.19-3.99-9.25-9.04c-0.06-5.02,3.95-7,5.72-11.22c1.63-3.88,1.51-8.85,0.18-12.8
				c-0.91-2.7-2.49-4.42-3.85-6.16c-1.64-1.63-2.67-3.88-2.7-6.38c-0.06-5.05,3.99-9.19,9.04-9.25c2-0.02,3.52,0.6,4.9,1.47
				c0.49,0.28,0.95,0.61,1.38,0.97c1.52,1.15,2.99,2.45,4.94,3.27c3.88,1.63,8.85,1.51,12.8,0.18c2.33-0.78,3.92-2.06,5.43-3.27
				c1.19-1.6,2.58-3.12,3.45-5.17c1.63-3.88,1.51-8.85,0.18-12.8c-1.8-5.35-6.25-6.83-6.31-12.28c-0.06-5.05,3.99-9.19,9.04-9.25
				c5.05-0.06,9.19,3.99,9.25,9.04c0.06,5.04-3.46,6.42-5.28,10.43c-2.12,4.69-2.28,10.99,0.13,15.62c0.87,1.67,2.01,2.87,3.04,4.1
				c1.59,1.62,2.59,3.84,2.61,6.3c0.06,5.05-3.99,9.19-9.04,9.25C59.73,69.97,58.14,69.14,56.69,68.08z"/>
			
				<linearGradient id="SVGID_00000104694498360480922830000006240363042496636321_" gradientUnits="userSpaceOnUse" x1="51.6263" y1="81.9218" x2="37.01" y2="75.7175">
				<stop  offset="0" style="stop-color:#FAA21B"/>
				<stop  offset="1" style="stop-color:#CD1F26"/>
			</linearGradient>
			<path style="fill-rule:evenodd;clip-rule:evenodd;fill:url(#SVGID_00000104694498360480922830000006240363042496636321_);" d="
				M44.32,86.41c4.18,0,7.59-3.41,7.59-7.59c0-4.18-3.41-7.59-7.59-7.59s-7.59,3.41-7.59,7.59C36.73,83,40.14,86.41,44.32,86.41z"/>
		</g>
		<g>
			<text transform="matrix(1 0 0 1 78.6745 79.8279)"><tspan x="0" y="0" class="st37 st38 st39">I</tspan><tspan x="6.82" y="0" class="st37 st38 st39">NGENIERÍA DE SOFTWARE</tspan></text>
		</g>
	</g>
	<text transform="matrix(1 0 0 1 77.8354 53.4852)"><tspan x="0" y="0" class="st40 st38 st41">E</tspan><tspan x="20.9" y="0" class="st40 st38 st41">LPROGRAMADOR</tspan></text>
</g>
</svg>
