<?xml version="1.0" encoding="utf-8"?>
<!-- Generator: Adobe Illustrator 26.1.0, SVG Export Plug-In . SVG Version: 6.00 Build 0)  -->
<svg version="1.1" xmlns="http://www.w3.org/2000/svg" xmlns:xlink="http://www.w3.org/1999/xlink" x="0px" y="0px"
	 viewBox="0 0 402.33 117.5" style="enable-background:new 0 0 402.33 117.5;" xml:space="preserve">
<style type="text/css">
	.st0{display:none;}
	.st1{display:inline;fill-rule:evenodd;clip-rule:evenodd;}
	.st2{fill-rule:evenodd;clip-rule:evenodd;fill:url(#SVGID_1_);}
	.st3{fill-rule:evenodd;clip-rule:evenodd;fill:url(#SVGID_00000150785643230736745560000008389831882016142730_);}
	.st4{fill-rule:evenodd;clip-rule:evenodd;fill:url(#SVGID_00000095319581362718697740000013725647550229509287_);}
	.st5{fill-rule:evenodd;clip-rule:evenodd;fill:url(#SVGID_00000073000982014007723410000014651102910244020915_);}
	.st6{fill-rule:evenodd;clip-rule:evenodd;fill:url(#SVGID_00000029039672346792600580000018109815196554207878_);}
	.st7{fill-rule:evenodd;clip-rule:evenodd;fill:url(#SVGID_00000027569230757445360930000005124694294627460253_);}
	.st8{fill-rule:evenodd;clip-rule:evenodd;fill:url(#SVGID_00000015318776028439881820000011824519267479971252_);}
	.st9{fill-rule:evenodd;clip-rule:evenodd;fill:url(#SVGID_00000137130447876954751940000001044337196559694772_);}
	.st10{fill-rule:evenodd;clip-rule:evenodd;fill:url(#SVGID_00000125574955087608757580000009223537282116847517_);}
	.st11{fill-rule:evenodd;clip-rule:evenodd;fill:url(#SVGID_00000104706760873629660510000004729062156647903635_);}
	.st12{fill-rule:evenodd;clip-rule:evenodd;fill:url(#SVGID_00000162328694179962450930000011487311024393049001_);}
	.st13{fill-rule:evenodd;clip-rule:evenodd;fill:url(#SVGID_00000055708075690352478930000018363740318015094182_);}
	.st14{fill-rule:evenodd;clip-rule:evenodd;fill:url(#SVGID_00000040557173285905953650000015954084441678858123_);}
	.st15{fill-rule:evenodd;clip-rule:evenodd;fill:url(#SVGID_00000137129422735495370180000005574720105149668503_);}
	.st16{fill-rule:evenodd;clip-rule:evenodd;fill:url(#SVGID_00000104667844099148358600000001949104957377779105_);}
	.st17{fill-rule:evenodd;clip-rule:evenodd;fill:url(#SVGID_00000024721958023466713860000001445490156789233333_);}
	.st18{fill-rule:evenodd;clip-rule:evenodd;fill:url(#SVGID_00000070114655077308343160000003065590082631417480_);}
	.st19{fill-rule:evenodd;clip-rule:evenodd;fill:url(#SVGID_00000105393572944331140600000004827785780550541236_);}
	.st20{fill-rule:evenodd;clip-rule:evenodd;fill:url(#SVGID_00000002343965770944672450000005874758196682524848_);}
	.st21{fill-rule:evenodd;clip-rule:evenodd;fill:url(#SVGID_00000034061258714852427550000001822371881571731897_);}
	.st22{fill-rule:evenodd;clip-rule:evenodd;}
	.st23{fill-rule:evenodd;clip-rule:evenodd;fill:url(#SVGID_00000060003080600541195500000007991268869167723186_);}
	.st24{fill-rule:evenodd;clip-rule:evenodd;fill:url(#SVGID_00000159444073965653750250000014695953654123572877_);}
	.st25{fill-rule:evenodd;clip-rule:evenodd;fill:url(#SVGID_00000132088329687721025110000002060556599212922766_);}
	.st26{fill-rule:evenodd;clip-rule:evenodd;fill:url(#SVGID_00000103983269062783258920000010782744000600409481_);}
	.st27{fill-rule:evenodd;clip-rule:evenodd;fill:url(#SVGID_00000075144773648894289340000008445635124859655602_);}
	.st28{fill-rule:evenodd;clip-rule:evenodd;fill:url(#SVGID_00000156588975837434176610000001215314407015555763_);}
	.st29{fill-rule:evenodd;clip-rule:evenodd;fill:url(#SVGID_00000121269102331307594670000015900038508223150266_);}
	.st30{fill-rule:evenodd;clip-rule:evenodd;fill:#E46A30;}
	.st31{fill-rule:evenodd;clip-rule:evenodd;fill:url(#SVGID_00000169544584856791198680000006672160518090302126_);}
	.st32{fill-rule:evenodd;clip-rule:evenodd;fill:url(#SVGID_00000155112572053507389160000006830929102977963677_);}
	.st33{fill-rule:evenodd;clip-rule:evenodd;fill:url(#SVGID_00000105428763382978441600000014641436571590713268_);}
	.st34{fill:#E46A30;}
	.st35{font-family:'GothamPro-Medium';}
	.st36{font-size:22.9103px;}
	.st37{fill:#FFFFFF;}
	.st38{font-size:33.2143px;}
	.st39{fill-rule:evenodd;clip-rule:evenodd;fill:url(#SVGID_00000179643399837878585690000008368694903952943537_);}
	.st40{fill-rule:evenodd;clip-rule:evenodd;fill:url(#SVGID_00000120536894098751809930000000502027603890692027_);}
	.st41{fill-rule:evenodd;clip-rule:evenodd;fill:url(#SVGID_00000017483997761393873000000009892871835110552202_);}
	.st42{fill-rule:evenodd;clip-rule:evenodd;fill:url(#SVGID_00000096743988198240759610000005333084616961099679_);}
	.st43{fill-rule:evenodd;clip-rule:evenodd;fill:url(#SVGID_00000093870908646468344240000004858128649584886958_);}
	.st44{fill-rule:evenodd;clip-rule:evenodd;fill:url(#SVGID_00000011027176658163977770000011201094706802630277_);}
</style>
<g id="Capa_2" class="st0">
	<rect class="st1" width="402.07" height="117.5"/>
</g>
<g id="Capa_1">
	<g>
		<g>
			<text transform="matrix(0.9118 0 0 1 87.8586 91.28)"><tspan x="0" y="0" class="st34 st35 st36">I</tspan><tspan x="7.26" y="0" class="st34 st35 st36">NGENIERÍA DE SOFTWARE</tspan></text>
		</g>
	</g>
	<text transform="matrix(0.9118 0 0 1 87.0437 63.2361)"><tspan x="0" y="0" class="st37 st35 st38">E</tspan><tspan x="22.25" y="0" class="st37 st35 st38">LPROGRAMADOR</tspan></text>
	<g>
		<linearGradient id="SVGID_1_" gradientUnits="userSpaceOnUse" x1="49.787" y1="44.1939" x2="32.1416" y2="36.7039">
			<stop  offset="0" style="stop-color:#FAA21B"/>
			<stop  offset="1" style="stop-color:#CD1F26"/>
		</linearGradient>
		<circle class="st2" cx="40.96" cy="40.45" r="9.16"/>
		
			<linearGradient id="SVGID_00000139982295472099118910000002457473091585275833_" gradientUnits="userSpaceOnUse" x1="84.2558" y1="77.3257" x2="-3.4659" y2="40.0901">
			<stop  offset="0" style="stop-color:#FAA21B"/>
			<stop  offset="1" style="stop-color:#CD1F26"/>
		</linearGradient>
		<path style="fill-rule:evenodd;clip-rule:evenodd;fill:url(#SVGID_00000139982295472099118910000002457473091585275833_);" d="
			M55.8,67.24c-2.07-1.47-3.55-3.04-5.96-4.13c-2.65-1.2-6.31-1.84-9.94-1.78c-3.26,0.05-6.49,0.66-8.92,1.93
			c-3.15,1.64-6.09,5.28-7.53,8.47c-2.56,5.66-2.76,13.27,0.15,18.86c2.44,4.68,6.65,6.31,6.72,12.36
			c0.07,6.1-4.82,11.09-10.91,11.16c-6.1,0.07-11.09-4.82-11.16-10.91c-0.07-6.06,4.76-8.45,6.9-13.54
			c1.97-4.69,1.82-10.68,0.21-15.45c-1.1-3.26-3.01-5.34-4.65-7.44c-1.98-1.97-3.22-4.69-3.26-7.7c-0.07-6.1,4.82-11.09,10.91-11.16
			c2.42-0.03,4.26,0.73,5.91,1.78c0.59,0.34,1.15,0.73,1.66,1.17c1.83,1.39,3.61,2.96,5.97,3.95c4.69,1.97,10.68,1.82,15.45,0.22
			c2.81-0.94,4.73-2.49,6.55-3.95c1.44-1.93,3.12-3.77,4.16-6.24c1.97-4.69,1.82-10.68,0.21-15.45c-2.17-6.46-7.54-8.25-7.62-14.83
			C50.6,8.45,55.48,3.45,61.58,3.38c6.1-0.07,11.09,4.82,11.16,10.91c0.07,6.08-4.18,7.75-6.37,12.6
			c-2.56,5.66-2.76,13.27,0.15,18.86c1.05,2.02,2.43,3.47,3.67,4.95c1.92,1.96,3.12,4.64,3.16,7.6c0.07,6.1-4.82,11.09-10.91,11.16
			C59.47,69.51,57.55,68.52,55.8,67.24z"/>
		
			<linearGradient id="SVGID_00000153692848042728474740000005089969357798255011_" gradientUnits="userSpaceOnUse" x1="49.7873" y1="83.9537" x2="32.142" y2="76.4637">
			<stop  offset="0" style="stop-color:#FAA21B"/>
			<stop  offset="1" style="stop-color:#CD1F26"/>
		</linearGradient>
		<path style="fill-rule:evenodd;clip-rule:evenodd;fill:url(#SVGID_00000153692848042728474740000005089969357798255011_);" d="
			M40.96,89.37c5.05,0,9.16-4.12,9.16-9.16c0-5.05-4.12-9.16-9.16-9.16c-5.05,0-9.16,4.12-9.16,9.16
			C31.8,85.26,35.92,89.37,40.96,89.37z"/>
	</g>
</g>
<g id="Capa_3">
</g>
</svg>
