<?xml version="1.0" encoding="utf-8"?>
<!-- Generator: Adobe Illustrator 26.1.0, SVG Export Plug-In . SVG Version: 6.00 Build 0)  -->
<svg version="1.1" xmlns="http://www.w3.org/2000/svg" xmlns:xlink="http://www.w3.org/1999/xlink" x="0px" y="0px"
	 viewBox="0 0 402.33 117.5" style="enable-background:new 0 0 402.33 117.5;" xml:space="preserve">
<style type="text/css">
	.st0{display:none;}
	.st1{display:inline;fill-rule:evenodd;clip-rule:evenodd;}
	.st2{fill-rule:evenodd;clip-rule:evenodd;fill:url(#SVGID_1_);}
	.st3{fill-rule:evenodd;clip-rule:evenodd;fill:url(#SVGID_00000021099924442515038040000009642695874456939935_);}
	.st4{fill-rule:evenodd;clip-rule:evenodd;fill:url(#SVGID_00000081637677753493200470000004274130447785924241_);}
	.st5{fill-rule:evenodd;clip-rule:evenodd;fill:url(#SVGID_00000091695025628845344960000004084951701929288069_);}
	.st6{fill-rule:evenodd;clip-rule:evenodd;fill:url(#SVGID_00000129885111839189412630000002059873378056250559_);}
	.st7{fill-rule:evenodd;clip-rule:evenodd;fill:url(#SVGID_00000134249275866813353880000014103023629324117947_);}
	.st8{fill-rule:evenodd;clip-rule:evenodd;fill:url(#SVGID_00000150077576886487487780000017876250477781349024_);}
	.st9{fill-rule:evenodd;clip-rule:evenodd;fill:url(#SVGID_00000060740861418665026890000003342716153979706285_);}
	.st10{fill-rule:evenodd;clip-rule:evenodd;fill:url(#SVGID_00000042018231153956147440000008496817846230347959_);}
	.st11{fill-rule:evenodd;clip-rule:evenodd;fill:url(#SVGID_00000043427497714632625150000013941641661248100287_);}
	.st12{fill-rule:evenodd;clip-rule:evenodd;fill:url(#SVGID_00000073685514450791210670000016992843235108069800_);}
	.st13{fill-rule:evenodd;clip-rule:evenodd;fill:url(#SVGID_00000171715069535306661460000002067586347610212519_);}
	.st14{fill-rule:evenodd;clip-rule:evenodd;fill:url(#SVGID_00000094588346134579910260000006798247562742384806_);}
	.st15{fill-rule:evenodd;clip-rule:evenodd;fill:url(#SVGID_00000153695657606560760130000016265617026423769984_);}
	.st16{fill-rule:evenodd;clip-rule:evenodd;fill:url(#SVGID_00000103249386569780768530000012138895370101151163_);}
	.st17{fill-rule:evenodd;clip-rule:evenodd;fill:url(#SVGID_00000003065114705111161620000014415343923821342114_);}
	.st18{fill-rule:evenodd;clip-rule:evenodd;fill:url(#SVGID_00000009551820631455843980000014355682518068632239_);}
	.st19{fill-rule:evenodd;clip-rule:evenodd;fill:url(#SVGID_00000041281151759856552310000010456661155166703493_);}
	.st20{fill-rule:evenodd;clip-rule:evenodd;fill:url(#SVGID_00000178925226623294072730000010269275261661926808_);}
	.st21{fill-rule:evenodd;clip-rule:evenodd;fill:url(#SVGID_00000164486589394357712120000001987255586984636339_);}
	.st22{fill-rule:evenodd;clip-rule:evenodd;}
	.st23{fill-rule:evenodd;clip-rule:evenodd;fill:url(#SVGID_00000067221577146765175890000013273561157806587837_);}
	.st24{fill-rule:evenodd;clip-rule:evenodd;fill:url(#SVGID_00000086651245018918728220000002989126582432147391_);}
	.st25{fill-rule:evenodd;clip-rule:evenodd;fill:url(#SVGID_00000078759134705416277550000000493254838482212010_);}
	.st26{fill-rule:evenodd;clip-rule:evenodd;fill:url(#SVGID_00000088133686501257547830000005169559811036206502_);}
	.st27{fill-rule:evenodd;clip-rule:evenodd;fill:url(#SVGID_00000106113665118729914930000006527187301884801153_);}
	.st28{fill-rule:evenodd;clip-rule:evenodd;fill:url(#SVGID_00000159434954351574668780000012932568649840916103_);}
	.st29{fill-rule:evenodd;clip-rule:evenodd;fill:url(#SVGID_00000071524611067914172490000000568798543282526386_);}
	.st30{fill-rule:evenodd;clip-rule:evenodd;fill:#E46A30;}
	.st31{fill-rule:evenodd;clip-rule:evenodd;fill:url(#SVGID_00000098938121909092852950000008979948804685802922_);}
	.st32{fill-rule:evenodd;clip-rule:evenodd;fill:url(#SVGID_00000003093522131930962430000008234146707203008442_);}
	.st33{fill-rule:evenodd;clip-rule:evenodd;fill:url(#SVGID_00000080914553160670974410000010146846779944349629_);}
	.st34{fill-rule:evenodd;clip-rule:evenodd;fill:url(#SVGID_00000049201995370929711470000005475715919665875093_);}
	.st35{fill-rule:evenodd;clip-rule:evenodd;fill:url(#SVGID_00000183948929493133504690000002434448611342969773_);}
	.st36{fill-rule:evenodd;clip-rule:evenodd;fill:url(#SVGID_00000080195410916944827260000000148235074619390607_);}
	.st37{fill:#E46A30;}
	.st38{font-family:'GothamPro-Medium';}
	.st39{font-size:25.0174px;}
	.st40{fill:#FFFFFF;}
	.st41{font-size:36.2691px;}
	.st42{fill-rule:evenodd;clip-rule:evenodd;fill:url(#SVGID_00000030481457941392718310000005562080745729113524_);}
	.st43{fill-rule:evenodd;clip-rule:evenodd;fill:url(#SVGID_00000170258820089571026970000004495985517810274453_);}
	.st44{fill-rule:evenodd;clip-rule:evenodd;fill:url(#SVGID_00000129194111917221204900000001907217859089912217_);}
</style>
<g id="Capa_2" class="st0">
	<rect class="st1" width="402.07" height="117.5"/>
</g>
<g id="Capa_1">
	<g>
		<g>
			<linearGradient id="SVGID_1_" gradientUnits="userSpaceOnUse" x1="38.9323" y1="51.7782" x2="28.9885" y2="47.5573">
				<stop  offset="0" style="stop-color:#FAA21B"/>
				<stop  offset="1" style="stop-color:#CD1F26"/>
			</linearGradient>
			<path class="st2" d="M33.96,55.21c2.81,0,5.09-2.49,5.09-5.54c0-3.05-2.29-5.54-5.09-5.54c-2.81,0-5.09,2.49-5.09,5.54
				C28.87,52.72,31.16,55.21,33.96,55.21z"/>
			
				<linearGradient id="SVGID_00000146465085139260623670000002087807342791941016_" gradientUnits="userSpaceOnUse" x1="58.1905" y1="71.1055" x2="9.2074" y2="50.3134">
				<stop  offset="0" style="stop-color:#FAA21B"/>
				<stop  offset="1" style="stop-color:#CD1F26"/>
			</linearGradient>
			<path style="fill-rule:evenodd;clip-rule:evenodd;fill:url(#SVGID_00000146465085139260623670000002087807342791941016_);" d="
				M42.26,65.86c-1.15-0.89-1.97-1.84-3.31-2.5c-1.47-0.73-3.51-1.11-5.53-1.08c-1.81,0.03-3.6,0.4-4.96,1.17
				c-1.75,0.99-3.39,3.2-4.19,5.12c-1.42,3.42-1.53,8.03,0.09,11.41c1.35,2.83,3.7,3.81,3.73,7.47c0.04,3.69-2.68,6.71-6.06,6.75
				c-3.39,0.04-6.17-2.91-6.2-6.6c-0.04-3.67,2.65-5.11,3.84-8.19c1.1-2.83,1.01-6.46,0.12-9.34c-0.61-1.97-1.67-3.23-2.58-4.5
				c-1.1-1.19-1.79-2.83-1.81-4.66c-0.04-3.69,2.68-6.71,6.06-6.75c1.35-0.02,2.37,0.44,3.29,1.08c0.33,0.21,0.64,0.44,0.92,0.71
				c1.02,0.84,2.01,1.79,3.32,2.39c2.6,1.19,5.94,1.1,8.59,0.13c1.56-0.57,2.63-1.51,3.64-2.39c0.8-1.17,1.73-2.28,2.31-3.78
				c1.1-2.83,1.01-6.46,0.12-9.34c-1.2-3.9-4.19-4.99-4.23-8.96c-0.04-3.69,2.68-6.71,6.06-6.75c3.39-0.04,6.17,2.91,6.2,6.6
				c0.04,3.68-2.32,4.69-3.54,7.62c-1.42,3.42-1.53,8.03,0.09,11.41c0.58,1.22,1.35,2.1,2.04,2.99c1.07,1.19,1.74,2.8,1.75,4.6
				c0.04,3.69-2.68,6.71-6.07,6.75C44.3,67.24,43.24,66.64,42.26,65.86z"/>
			
				<linearGradient id="SVGID_00000134956547814896980810000014433435847377053092_" gradientUnits="userSpaceOnUse" x1="38.9325" y1="75.815" x2="28.9889" y2="71.5942">
				<stop  offset="0" style="stop-color:#FAA21B"/>
				<stop  offset="1" style="stop-color:#CD1F26"/>
			</linearGradient>
			<path style="fill-rule:evenodd;clip-rule:evenodd;fill:url(#SVGID_00000134956547814896980810000014433435847377053092_);" d="
				M33.96,79.25c2.81,0,5.09-2.49,5.09-5.54c0-3.05-2.29-5.54-5.09-5.54c-2.81,0-5.09,2.49-5.09,5.54
				C28.87,76.76,31.16,79.25,33.96,79.25z"/>
		</g>
		<g>
			<text transform="matrix(0.9118 0 0 1 60.5256 90.9216)"><tspan x="0" y="0" class="st37 st38 st39">I</tspan><tspan x="7.93" y="0" class="st37 st38 st39">NGENIERÍA DE SOFTWARE</tspan></text>
		</g>
	</g>
	<text transform="matrix(0.9118 0 0 1 59.636 60.2986)"><tspan x="0" y="0" class="st40 st38 st41">E</tspan><tspan x="24.3" y="0" class="st40 st38 st41">LPROGRAMADOR</tspan></text>
</g>
<g id="Capa_3">
</g>
</svg>
