<?xml version="1.0" encoding="utf-8"?>
<!-- Generator: Adobe Illustrator 26.1.0, SVG Export Plug-In . SVG Version: 6.00 Build 0)  -->
<svg version="1.1" id="Capa_1" xmlns="http://www.w3.org/2000/svg" xmlns:xlink="http://www.w3.org/1999/xlink" x="0px" y="0px"
	 viewBox="0 0 223.8 283.05" style="enable-background:new 0 0 223.8 283.05;" xml:space="preserve">
<style type="text/css">
	.st0{fill-rule:evenodd;clip-rule:evenodd;fill:url(#SVGID_1_);}
	.st1{fill-rule:evenodd;clip-rule:evenodd;fill:url(#SVGID_00000057839876295766987770000001579164772488837776_);}
	.st2{fill-rule:evenodd;clip-rule:evenodd;fill:url(#SVGID_00000159452898071077978480000013466649996687031996_);}
	.st3{fill-rule:evenodd;clip-rule:evenodd;fill:url(#SVGID_00000052796066011380211440000015046396874938490557_);}
	.st4{fill-rule:evenodd;clip-rule:evenodd;fill:url(#SVGID_00000047739257213165743050000007998790970648884156_);}
	.st5{fill-rule:evenodd;clip-rule:evenodd;fill:url(#SVGID_00000003803447407981650450000017945896541542051999_);}
	.st6{fill-rule:evenodd;clip-rule:evenodd;fill:url(#SVGID_00000026868270345150790080000011640232324036926848_);}
	.st7{fill-rule:evenodd;clip-rule:evenodd;fill:url(#SVGID_00000051371302031669051360000003482293886322232463_);}
	.st8{fill-rule:evenodd;clip-rule:evenodd;fill:url(#SVGID_00000036944046731049872690000011061403283510164402_);}
	.st9{fill-rule:evenodd;clip-rule:evenodd;fill:url(#SVGID_00000179641645137039725170000000981940934208411803_);}
	.st10{fill-rule:evenodd;clip-rule:evenodd;fill:url(#SVGID_00000029007209674041702700000016089553695275998356_);}
	.st11{fill-rule:evenodd;clip-rule:evenodd;fill:url(#SVGID_00000011736759445181645470000014417379164995682436_);}
	.st12{fill-rule:evenodd;clip-rule:evenodd;fill:url(#SVGID_00000036958479464024716430000014242799278575136923_);}
	.st13{fill-rule:evenodd;clip-rule:evenodd;fill:url(#SVGID_00000177472117223337939670000008857558410865893814_);}
	.st14{fill-rule:evenodd;clip-rule:evenodd;fill:url(#SVGID_00000001629591558749389330000013944137957322258054_);}
	.st15{fill-rule:evenodd;clip-rule:evenodd;fill:url(#SVGID_00000043454575780820172920000003208369515912461737_);}
	.st16{fill-rule:evenodd;clip-rule:evenodd;fill:url(#SVGID_00000081628373438198360800000009537247807590537142_);}
	.st17{fill-rule:evenodd;clip-rule:evenodd;fill:url(#SVGID_00000075853258194689470670000010748065649527290283_);}
	.st18{fill-rule:evenodd;clip-rule:evenodd;fill:url(#SVGID_00000088119868876860308160000015680900872857032625_);}
	.st19{fill-rule:evenodd;clip-rule:evenodd;fill:url(#SVGID_00000052824361666536776590000005584022521366956217_);}
	.st20{fill-rule:evenodd;clip-rule:evenodd;}
	.st21{fill-rule:evenodd;clip-rule:evenodd;fill:url(#SVGID_00000076569600840233703880000003713656537074663351_);}
	.st22{fill-rule:evenodd;clip-rule:evenodd;fill:url(#SVGID_00000001635731880717786520000018435452098363989149_);}
	.st23{fill-rule:evenodd;clip-rule:evenodd;fill:url(#SVGID_00000173157451428517688190000000144440345631083947_);}
	.st24{fill-rule:evenodd;clip-rule:evenodd;fill:url(#SVGID_00000126312512506607116720000007722319272930948255_);}
	.st25{fill-rule:evenodd;clip-rule:evenodd;fill:url(#SVGID_00000146500166017327908300000000581977501846703513_);}
	.st26{fill-rule:evenodd;clip-rule:evenodd;fill:url(#SVGID_00000067218106414659138010000009871692416081031335_);}
	.st27{fill-rule:evenodd;clip-rule:evenodd;fill:url(#SVGID_00000119811677273035394620000010285019736606445487_);}
	.st28{fill-rule:evenodd;clip-rule:evenodd;fill:#E46A30;}
	.st29{fill-rule:evenodd;clip-rule:evenodd;fill:url(#SVGID_00000054950096989457602230000012168571574588264599_);}
	.st30{fill-rule:evenodd;clip-rule:evenodd;fill:url(#SVGID_00000176028302347703711080000011808280197328405181_);}
	.st31{fill-rule:evenodd;clip-rule:evenodd;fill:url(#SVGID_00000088123553053180512700000008695216935756779696_);}
	.st32{fill-rule:evenodd;clip-rule:evenodd;fill:url(#SVGID_00000176757188274021625900000014671973512332707509_);}
	.st33{fill-rule:evenodd;clip-rule:evenodd;fill:url(#SVGID_00000060734000101519995970000015818915142836441765_);}
	.st34{fill-rule:evenodd;clip-rule:evenodd;fill:url(#SVGID_00000023973554723391296190000006792048581348897939_);}
</style>
<g>
	<text transform="matrix(1 0 0 1 656.0657 210.8639)"><tspan x="0" y="0" style="font-family:'GothamPro-Medium'; font-size:12.5345px;">I</tspan><tspan x="3.97" y="0" style="font-family:'GothamPro-Medium'; font-size:12.5345px;">NGENIERÍA DE SOFTWARE</tspan></text>
	<linearGradient id="SVGID_1_" gradientUnits="userSpaceOnUse" x1="656.7813" y1="205.9768" x2="833.1461" y2="205.9768">
		<stop  offset="0" style="stop-color:#FAA21B"/>
		<stop  offset="1" style="stop-color:#CD1F26"/>
	</linearGradient>
	<rect x="656.78" y="201.59" class="st0" width="1.54" height="8.77"/>
	
		<linearGradient id="SVGID_00000045589466148206138080000010717733424029474979_" gradientUnits="userSpaceOnUse" x1="656.7818" y1="205.9768" x2="833.1429" y2="205.9768">
		<stop  offset="0" style="stop-color:#FAA21B"/>
		<stop  offset="1" style="stop-color:#CD1F26"/>
	</linearGradient>
	
		<polygon style="fill-rule:evenodd;clip-rule:evenodd;fill:url(#SVGID_00000045589466148206138080000010717733424029474979_);" points="
		660.67,210.36 662.18,210.36 662.18,204.12 667.02,210.36 668.31,210.36 668.31,201.59 666.8,201.59 666.8,207.66 662.1,201.59 
		660.67,201.59 	"/>
	
		<linearGradient id="SVGID_00000084497355136991608520000003308026578133762438_" gradientUnits="userSpaceOnUse" x1="656.7815" y1="205.9768" x2="833.1422" y2="205.9768">
		<stop  offset="0" style="stop-color:#FAA21B"/>
		<stop  offset="1" style="stop-color:#CD1F26"/>
	</linearGradient>
	<path style="fill-rule:evenodd;clip-rule:evenodd;fill:url(#SVGID_00000084497355136991608520000003308026578133762438_);" d="
		M674.73,210.51c1.55,0,2.8-0.63,3.66-1.37v-3.69h-3.74v1.34h2.24v1.64c-0.54,0.4-1.29,0.66-2.12,0.66c-1.79,0-2.98-1.33-2.98-3.13
		c0-1.7,1.23-3.12,2.85-3.12c1.12,0,1.78,0.36,2.46,0.94l0.98-1.17c-0.9-0.76-1.84-1.19-3.37-1.19c-2.64,0-4.52,2.08-4.52,4.54
		C670.18,208.56,671.99,210.51,674.73,210.51z"/>
	
		<linearGradient id="SVGID_00000031911471433651500760000002185635490518082478_" gradientUnits="userSpaceOnUse" x1="653.9453" y1="205.9768" x2="848.9022" y2="205.9768">
		<stop  offset="0" style="stop-color:#FAA21B"/>
		<stop  offset="1" style="stop-color:#CD1F26"/>
	</linearGradient>
	
		<polygon style="fill-rule:evenodd;clip-rule:evenodd;fill:url(#SVGID_00000031911471433651500760000002185635490518082478_);" points="
		680.4,210.36 686.96,210.36 686.96,208.99 681.94,208.99 681.94,206.63 686.34,206.63 686.34,205.25 681.94,205.25 681.94,202.97 
		686.9,202.97 686.9,201.59 680.4,201.59 	"/>
	
		<linearGradient id="SVGID_00000173132058312700039330000014796093764207192706_" gradientUnits="userSpaceOnUse" x1="656.7817" y1="205.9768" x2="833.1428" y2="205.9768">
		<stop  offset="0" style="stop-color:#FAA21B"/>
		<stop  offset="1" style="stop-color:#CD1F26"/>
	</linearGradient>
	
		<polygon style="fill-rule:evenodd;clip-rule:evenodd;fill:url(#SVGID_00000173132058312700039330000014796093764207192706_);" points="
		688.8,210.36 690.31,210.36 690.31,204.12 695.15,210.36 696.44,210.36 696.44,201.59 694.92,201.59 694.92,207.66 690.22,201.59 
		688.8,201.59 	"/>
	
		<linearGradient id="SVGID_00000093152435514025799240000003667707812372422063_" gradientUnits="userSpaceOnUse" x1="656.7806" y1="205.9768" x2="833.1454" y2="205.9768">
		<stop  offset="0" style="stop-color:#FAA21B"/>
		<stop  offset="1" style="stop-color:#CD1F26"/>
	</linearGradient>
	
		<rect x="698.78" y="201.59" style="fill-rule:evenodd;clip-rule:evenodd;fill:url(#SVGID_00000093152435514025799240000003667707812372422063_);" width="1.54" height="8.77"/>
	
		<linearGradient id="SVGID_00000119816888262665765300000013314992530610135973_" gradientUnits="userSpaceOnUse" x1="651.5967" y1="205.9768" x2="846.5536" y2="205.9768">
		<stop  offset="0" style="stop-color:#FAA21B"/>
		<stop  offset="1" style="stop-color:#CD1F26"/>
	</linearGradient>
	
		<polygon style="fill-rule:evenodd;clip-rule:evenodd;fill:url(#SVGID_00000119816888262665765300000013314992530610135973_);" points="
		702.67,210.36 709.24,210.36 709.24,208.99 704.21,208.99 704.21,206.63 708.61,206.63 708.61,205.25 704.21,205.25 704.21,202.97 
		709.18,202.97 709.18,201.59 702.67,201.59 	"/>
	
		<linearGradient id="SVGID_00000029748110994009468510000003304224627913444281_" gradientUnits="userSpaceOnUse" x1="650.2942" y1="205.9768" x2="846.3789" y2="205.9768">
		<stop  offset="0" style="stop-color:#FAA21B"/>
		<stop  offset="1" style="stop-color:#CD1F26"/>
	</linearGradient>
	<path style="fill-rule:evenodd;clip-rule:evenodd;fill:url(#SVGID_00000029748110994009468510000003304224627913444281_);" d="
		M711.07,210.36h1.54v-3.06h1.91l2.18,3.06h1.82l-2.37-3.32c1.23-0.35,2.09-1.22,2.09-2.66c0-1.69-1.2-2.8-3.26-2.8h-3.91V210.36
		L711.07,210.36z M712.61,205.94v-2.95h2.24c1.14,0,1.82,0.51,1.82,1.45c0,0.92-0.7,1.49-1.81,1.49H712.61z"/>
	
		<linearGradient id="SVGID_00000135688159858156059260000005553993606060522170_" gradientUnits="userSpaceOnUse" x1="601.935" y1="204.5854" x2="927.4286" y2="204.5854">
		<stop  offset="0" style="stop-color:#FAA21B"/>
		<stop  offset="1" style="stop-color:#CD1F26"/>
	</linearGradient>
	<path style="fill-rule:evenodd;clip-rule:evenodd;fill:url(#SVGID_00000135688159858156059260000005553993606060522170_);" d="
		M720.22,210.36h1.54v-8.77h-1.54V210.36L720.22,210.36z M720.36,200.86h1.18l1.53-1.44l-1.38-0.61L720.36,200.86z"/>
	
		<linearGradient id="SVGID_00000009550395623026783200000010821064058792700820_" gradientUnits="userSpaceOnUse" x1="656.7816" y1="205.9455" x2="833.1432" y2="205.9455">
		<stop  offset="0" style="stop-color:#FAA21B"/>
		<stop  offset="1" style="stop-color:#CD1F26"/>
	</linearGradient>
	<path style="fill-rule:evenodd;clip-rule:evenodd;fill:url(#SVGID_00000009550395623026783200000010821064058792700820_);" d="
		M723.35,210.36h1.58l0.9-2.12h4.15l0.89,2.12h1.63l-3.86-8.84h-1.43L723.35,210.36L723.35,210.36z M726.4,206.88l1.5-3.51
		l1.52,3.51H726.4z"/>
	
		<linearGradient id="SVGID_00000042005566521652393330000013801469712211559348_" gradientUnits="userSpaceOnUse" x1="656.7823" y1="205.9768" x2="833.1415" y2="205.9768">
		<stop  offset="0" style="stop-color:#FAA21B"/>
		<stop  offset="1" style="stop-color:#CD1F26"/>
	</linearGradient>
	<path style="fill-rule:evenodd;clip-rule:evenodd;fill:url(#SVGID_00000042005566521652393330000013801469712211559348_);" d="
		M737.77,210.36h3.27c2.76,0,4.66-1.92,4.66-4.39c0-2.49-1.91-4.39-4.66-4.39h-3.27V210.36L737.77,210.36z M739.31,208.96v-5.97
		h1.73c1.84,0,3.05,1.27,3.05,2.98c0,1.74-1.2,2.98-3.05,2.98H739.31z"/>
	
		<linearGradient id="SVGID_00000113330021981459495670000015027857001162835368_" gradientUnits="userSpaceOnUse" x1="646.8622" y1="205.9768" x2="841.8192" y2="205.9768">
		<stop  offset="0" style="stop-color:#FAA21B"/>
		<stop  offset="1" style="stop-color:#CD1F26"/>
	</linearGradient>
	
		<polygon style="fill-rule:evenodd;clip-rule:evenodd;fill:url(#SVGID_00000113330021981459495670000015027857001162835368_);" points="
		747.57,210.36 754.14,210.36 754.14,208.99 749.11,208.99 749.11,206.63 753.51,206.63 753.51,205.25 749.11,205.25 749.11,202.97 
		754.07,202.97 754.07,201.59 747.57,201.59 	"/>
	
		<linearGradient id="SVGID_00000181778109452911434630000016780487206574198199_" gradientUnits="userSpaceOnUse" x1="599.1078" y1="205.9768" x2="871.6485" y2="205.9768">
		<stop  offset="0" style="stop-color:#FAA21B"/>
		<stop  offset="1" style="stop-color:#CD1F26"/>
	</linearGradient>
	<path style="fill-rule:evenodd;clip-rule:evenodd;fill:url(#SVGID_00000181778109452911434630000016780487206574198199_);" d="
		M762.8,210.49c1.84,0,3.13-0.98,3.13-2.62c0-1.48-0.97-2.14-2.82-2.59c-1.68-0.4-2.08-0.7-2.08-1.38c0-0.6,0.53-1.07,1.43-1.07
		c0.8,0,1.59,0.31,2.38,0.9l0.83-1.17c-0.89-0.71-1.91-1.1-3.18-1.1c-1.74,0-3,1.04-3,2.54c0,1.64,1.05,2.19,2.92,2.63
		c1.63,0.39,1.98,0.73,1.98,1.35c0,0.69-0.6,1.13-1.55,1.13c-1.09,0-1.93-0.41-2.77-1.14l-0.93,1.1
		C760.19,210.03,761.46,210.49,762.8,210.49z"/>
	
		<linearGradient id="SVGID_00000069362866327755717410000010915064410298368679_" gradientUnits="userSpaceOnUse" x1="656.783" y1="205.9768" x2="833.1421" y2="205.9768">
		<stop  offset="0" style="stop-color:#FAA21B"/>
		<stop  offset="1" style="stop-color:#CD1F26"/>
	</linearGradient>
	<path style="fill-rule:evenodd;clip-rule:evenodd;fill:url(#SVGID_00000069362866327755717410000010915064410298368679_);" d="
		M771.94,210.51c2.69,0,4.6-2.07,4.6-4.54c0-2.49-1.88-4.54-4.58-4.54s-4.6,2.07-4.6,4.54
		C767.36,208.47,769.24,210.51,771.94,210.51L771.94,210.51z M771.96,209.1c-1.74,0-2.98-1.42-2.98-3.12c0-1.73,1.22-3.12,2.96-3.12
		c1.74,0,2.98,1.42,2.98,3.12C774.92,207.71,773.7,209.1,771.96,209.1z"/>
	
		<linearGradient id="SVGID_00000174564757419651089750000012962615929221480353_" gradientUnits="userSpaceOnUse" x1="644.975" y1="205.9768" x2="838.0084" y2="205.9768">
		<stop  offset="0" style="stop-color:#FAA21B"/>
		<stop  offset="1" style="stop-color:#CD1F26"/>
	</linearGradient>
	
		<polygon style="fill-rule:evenodd;clip-rule:evenodd;fill:url(#SVGID_00000174564757419651089750000012962615929221480353_);" points="
		778.4,210.36 779.95,210.36 779.95,206.79 784.37,206.79 784.37,205.39 779.95,205.39 779.95,202.99 784.93,202.99 784.93,201.59 
		778.4,201.59 	"/>
	
		<linearGradient id="SVGID_00000111876116324734534950000009557932376268450962_" gradientUnits="userSpaceOnUse" x1="181.4528" y1="205.9768" x2="989.1614" y2="205.9768">
		<stop  offset="0" style="stop-color:#FAA21B"/>
		<stop  offset="1" style="stop-color:#CD1F26"/>
	</linearGradient>
	
		<polygon style="fill-rule:evenodd;clip-rule:evenodd;fill:url(#SVGID_00000111876116324734534950000009557932376268450962_);" points="
		788.78,210.36 790.34,210.36 790.34,203.02 793.12,203.02 793.12,201.59 786,201.59 786,203.02 788.78,203.02 	"/>
	
		<linearGradient id="SVGID_00000080888981326288667040000007995114623737080210_" gradientUnits="userSpaceOnUse" x1="656.7811" y1="205.9955" x2="833.1425" y2="205.9955">
		<stop  offset="0" style="stop-color:#FAA21B"/>
		<stop  offset="1" style="stop-color:#CD1F26"/>
	</linearGradient>
	
		<polygon style="fill-rule:evenodd;clip-rule:evenodd;fill:url(#SVGID_00000080888981326288667040000007995114623737080210_);" points="
		797.13,210.43 798.46,210.43 800.62,204.12 802.77,210.43 804.1,210.43 807.16,201.59 805.54,201.59 803.45,208.1 801.29,201.56 
		799.99,201.56 797.83,208.1 795.74,201.59 794.07,201.59 	"/>
	
		<linearGradient id="SVGID_00000140717153239446993330000007246082244698838148_" gradientUnits="userSpaceOnUse" x1="656.7829" y1="205.9455" x2="833.1426" y2="205.9455">
		<stop  offset="0" style="stop-color:#FAA21B"/>
		<stop  offset="1" style="stop-color:#CD1F26"/>
	</linearGradient>
	<path style="fill-rule:evenodd;clip-rule:evenodd;fill:url(#SVGID_00000140717153239446993330000007246082244698838148_);" d="
		M806.86,210.36h1.58l0.9-2.12h4.15l0.89,2.12h1.63l-3.86-8.84h-1.43L806.86,210.36L806.86,210.36z M809.9,206.88l1.5-3.51
		l1.52,3.51H809.9z"/>
	
		<linearGradient id="SVGID_00000088123198543064877300000013003000143645188235_" gradientUnits="userSpaceOnUse" x1="638.3897" y1="205.9768" x2="834.4744" y2="205.9768">
		<stop  offset="0" style="stop-color:#FAA21B"/>
		<stop  offset="1" style="stop-color:#CD1F26"/>
	</linearGradient>
	<path style="fill-rule:evenodd;clip-rule:evenodd;fill:url(#SVGID_00000088123198543064877300000013003000143645188235_);" d="
		M817.51,210.36h1.54v-3.06h1.91l2.18,3.06h1.82l-2.37-3.32c1.23-0.35,2.09-1.22,2.09-2.66c0-1.69-1.2-2.8-3.26-2.8h-3.91V210.36
		L817.51,210.36z M819.05,205.94v-2.95h2.24c1.14,0,1.82,0.51,1.82,1.45c0,0.92-0.7,1.49-1.81,1.49H819.05z"/>
	
		<linearGradient id="SVGID_00000088814241144792646470000012810801161540479670_" gradientUnits="userSpaceOnUse" x1="638.535" y1="205.9768" x2="833.489" y2="205.9768">
		<stop  offset="0" style="stop-color:#FAA21B"/>
		<stop  offset="1" style="stop-color:#CD1F26"/>
	</linearGradient>
	
		<polygon style="fill-rule:evenodd;clip-rule:evenodd;fill:url(#SVGID_00000088814241144792646470000012810801161540479670_);" points="
		826.57,210.36 833.14,210.36 833.14,208.99 828.12,208.99 828.12,206.63 832.52,206.63 832.52,205.25 828.12,205.25 828.12,202.97 
		833.08,202.97 833.08,201.59 826.57,201.59 	"/>
	<path class="st20" d="M544.64,138.38c10.49,0,19.24,7.42,21.3,17.3h-8.69c-1.84-5.19-6.79-8.91-12.61-8.91
		c-7.38,0-13.37,5.99-13.37,13.37c0,7.38,5.99,13.37,13.37,13.37c5.82,0,10.77-3.72,12.61-8.91h8.69
		c-2.06,9.88-10.81,17.3-21.3,17.3c-12.02,0-21.76-9.74-21.76-21.76C522.88,148.12,532.62,138.38,544.64,138.38z"/>
	<path class="st20" d="M595.4,138.38c4.98,0,9.58,1.68,13.24,4.5v-4.76h9.16v39.46c0,2.52-2.06,4.58-4.58,4.58h0
		c-2.52,0-4.58-2.06-4.58-4.58v-0.18c-3.67,2.82-8.26,4.5-13.24,4.5c-12.02,0-21.76-9.74-21.76-21.76
		C573.64,148.12,583.38,138.38,595.4,138.38L595.4,138.38z M608.64,161.96v-3.65c-0.89-6.52-6.48-11.54-13.24-11.54
		c-7.38,0-13.37,5.99-13.37,13.37c0,7.38,5.99,13.37,13.37,13.37C602.16,173.51,607.75,168.48,608.64,161.96z"/>
	<path class="st20" d="M653.07,138.38c12.02,0,21.76,9.74,21.76,21.76c0,12.02-9.74,21.76-21.76,21.76
		c-12.02,0-21.76-9.74-21.76-21.76C631.31,148.12,641.05,138.38,653.07,138.38L653.07,138.38z M653.07,146.77
		c-7.38,0-13.37,5.99-13.37,13.37c0,7.38,5.99,13.37,13.37,13.37s13.37-5.99,13.37-13.37C666.44,152.76,660.45,146.77,653.07,146.77
		z"/>
	<path class="st20" d="M635.32,177.14L635.32,177.14c2.52,0,4.58,2.06,4.58,4.58v23.6c0,2.52-2.06,4.58-4.58,4.58h0
		c-2.52,0-4.58-2.06-4.58-4.58v-23.6C630.74,179.21,632.8,177.14,635.32,177.14z"/>
	<path class="st20" d="M686.75,138.12h8.75v22.15c0,7.22,5.9,13.12,13.12,13.12h0c7.22,0,13.12-5.9,13.12-13.12v-22.15h8.75v22.17
		c0,12.03-9.84,21.87-21.87,21.87h0c-12.03,0-21.87-9.84-21.87-21.87V138.12z"/>
	<rect x="757.08" y="151.47" class="st20" width="9.04" height="30.69"/>
	<path class="st20" d="M781.91,142.64L781.91,142.64c0,2.49-2.03,4.52-4.52,4.52H745.8c-2.49,0-4.52-2.03-4.52-4.52l0,0
		c0-2.49,2.03-4.52,4.52-4.52h31.59C779.88,138.12,781.91,140.15,781.91,142.64z"/>
	
		<linearGradient id="SVGID_00000096051843051424816800000010753153142384368305_" gradientUnits="userSpaceOnUse" x1="789.6432" y1="160.1387" x2="833.1581" y2="160.1387">
		<stop  offset="0" style="stop-color:#FAA21B"/>
		<stop  offset="1" style="stop-color:#CD1F26"/>
	</linearGradient>
	<path style="fill-rule:evenodd;clip-rule:evenodd;fill:url(#SVGID_00000096051843051424816800000010753153142384368305_);" d="
		M811.4,138.38c12.02,0,21.76,9.74,21.76,21.76c0,12.02-9.74,21.76-21.76,21.76c-12.02,0-21.76-9.74-21.76-21.76
		C789.64,148.12,799.38,138.38,811.4,138.38L811.4,138.38z M811.4,146.77c-7.38,0-13.37,5.99-13.37,13.37
		c0,7.38,5.99,13.37,13.37,13.37c7.38,0,13.37-5.99,13.37-13.37C824.77,152.76,818.78,146.77,811.4,146.77z"/>
	
		<linearGradient id="SVGID_00000055689028059912675470000018004176446276221360_" gradientUnits="userSpaceOnUse" x1="693.0701" y1="66.0575" x2="677.4045" y2="59.4079">
		<stop  offset="0" style="stop-color:#FAA21B"/>
		<stop  offset="1" style="stop-color:#CD1F26"/>
	</linearGradient>
	<path style="fill-rule:evenodd;clip-rule:evenodd;fill:url(#SVGID_00000055689028059912675470000018004176446276221360_);" d="
		M685.24,70.87c4.48,0,8.14-3.65,8.14-8.14s-3.66-8.14-8.14-8.14c-4.48,0-8.14,3.65-8.14,8.14S680.76,70.87,685.24,70.87z"/>
	
		<linearGradient id="SVGID_00000119116406438381934820000000965521095575915430_" gradientUnits="userSpaceOnUse" x1="723.6717" y1="95.472" x2="645.7919" y2="62.4139">
		<stop  offset="0" style="stop-color:#FAA21B"/>
		<stop  offset="1" style="stop-color:#CD1F26"/>
	</linearGradient>
	<path style="fill-rule:evenodd;clip-rule:evenodd;fill:url(#SVGID_00000119116406438381934820000000965521095575915430_);" d="
		M698.41,86.51c-1.84-1.31-3.15-2.69-5.3-3.67c-2.35-1.06-5.61-1.63-8.83-1.58c-2.89,0.05-5.76,0.59-7.92,1.72
		c-2.8,1.46-5.41,4.69-6.69,7.52c-2.28,5.02-2.45,11.78,0.14,16.75c2.16,4.16,5.9,5.6,5.96,10.97c0.06,5.41-4.28,9.85-9.69,9.91
		c-5.41,0.06-9.85-4.28-9.91-9.69c-0.06-5.38,4.23-7.51,6.13-12.02c1.75-4.16,1.61-9.48,0.19-13.72c-0.97-2.9-2.67-4.74-4.13-6.6
		c-1.76-1.75-2.86-4.16-2.89-6.84c-0.06-5.41,4.28-9.85,9.69-9.91c2.15-0.02,3.78,0.65,5.25,1.58c0.52,0.3,1.02,0.65,1.48,1.04
		c1.63,1.24,3.21,2.63,5.3,3.51c4.16,1.75,9.48,1.62,13.72,0.19c2.49-0.84,4.2-2.21,5.82-3.5c1.28-1.72,2.77-3.35,3.69-5.54
		c1.75-4.16,1.62-9.49,0.19-13.72c-1.92-5.73-6.7-7.32-6.76-13.16c-0.06-5.41,4.28-9.85,9.69-9.91c5.41-0.06,9.85,4.28,9.91,9.69
		c0.06,5.4-3.71,6.88-5.66,11.18c-2.28,5.03-2.45,11.78,0.14,16.75c0.93,1.79,2.16,3.08,3.26,4.4c1.71,1.74,2.77,4.12,2.8,6.75
		c0.06,5.41-4.28,9.85-9.69,9.91C701.66,88.53,699.96,87.65,698.41,86.51z"/>
	
		<linearGradient id="SVGID_00000033331782595602699530000014631949396155646858_" gradientUnits="userSpaceOnUse" x1="693.0706" y1="101.3561" x2="677.4052" y2="94.7065">
		<stop  offset="0" style="stop-color:#FAA21B"/>
		<stop  offset="1" style="stop-color:#CD1F26"/>
	</linearGradient>
	<path style="fill-rule:evenodd;clip-rule:evenodd;fill:url(#SVGID_00000033331782595602699530000014631949396155646858_);" d="
		M685.24,106.17c4.48,0,8.14-3.65,8.14-8.14c0-4.48-3.65-8.14-8.14-8.14c-4.48,0-8.14,3.65-8.14,8.14
		C677.1,102.51,680.76,106.17,685.24,106.17z"/>
</g>
<g>
	<g>
		
			<linearGradient id="SVGID_00000142177935759448908680000004284774745573611919_" gradientUnits="userSpaceOnUse" x1="532.2348" y1="343.7165" x2="517.6183" y2="337.5122">
			<stop  offset="0" style="stop-color:#FAA21B"/>
			<stop  offset="1" style="stop-color:#CD1F26"/>
		</linearGradient>
		<path style="fill-rule:evenodd;clip-rule:evenodd;fill:url(#SVGID_00000142177935759448908680000004284774745573611919_);" d="
			M524.93,348.2c4.18,0,7.59-3.41,7.59-7.59c0-4.18-3.41-7.59-7.59-7.59c-4.18,0-7.59,3.41-7.59,7.59
			C517.34,344.79,520.75,348.2,524.93,348.2z"/>
		
			<linearGradient id="SVGID_00000173137375761138096250000016979418504331411355_" gradientUnits="userSpaceOnUse" x1="560.8688" y1="371.1579" x2="488.2081" y2="340.3152">
			<stop  offset="0" style="stop-color:#FAA21B"/>
			<stop  offset="1" style="stop-color:#CD1F26"/>
		</linearGradient>
		<path style="fill-rule:evenodd;clip-rule:evenodd;fill:url(#SVGID_00000173137375761138096250000016979418504331411355_);" d="
			M537.3,362.8c-1.71-1.22-2.94-2.51-4.94-3.42c-2.19-0.99-5.23-1.52-8.23-1.47c-2.7,0.04-5.37,0.55-7.39,1.6
			c-2.61,1.36-5.05,4.38-6.24,7.01c-2.12,4.69-2.28,10.99,0.13,15.62c2.02,3.88,5.51,5.23,5.56,10.24c0.06,5.05-3.99,9.19-9.04,9.25
			c-5.05,0.06-9.19-3.99-9.25-9.04c-0.06-5.02,3.95-7,5.72-11.22c1.63-3.88,1.51-8.85,0.18-12.8c-0.91-2.7-2.49-4.42-3.85-6.16
			c-1.64-1.63-2.67-3.88-2.7-6.38c-0.06-5.05,3.99-9.19,9.04-9.25c2.01-0.02,3.52,0.6,4.9,1.47c0.49,0.28,0.95,0.61,1.38,0.97
			c1.52,1.15,2.99,2.45,4.94,3.27c3.88,1.63,8.85,1.51,12.8,0.18c2.33-0.78,3.92-2.06,5.43-3.27c1.19-1.6,2.58-3.12,3.45-5.17
			c1.63-3.88,1.51-8.85,0.18-12.8c-1.8-5.35-6.25-6.83-6.31-12.28c-0.06-5.05,3.99-9.19,9.04-9.25c5.05-0.06,9.19,3.99,9.25,9.04
			c0.06,5.04-3.46,6.42-5.28,10.43c-2.12,4.69-2.28,10.99,0.13,15.62c0.87,1.67,2.01,2.87,3.04,4.1c1.59,1.62,2.59,3.84,2.61,6.3
			c0.06,5.05-3.99,9.19-9.04,9.25C540.34,364.69,538.75,363.86,537.3,362.8z"/>
		
			<linearGradient id="SVGID_00000059272325837356387090000010576662502581223590_" gradientUnits="userSpaceOnUse" x1="532.235" y1="376.641" x2="517.6188" y2="370.4368">
			<stop  offset="0" style="stop-color:#FAA21B"/>
			<stop  offset="1" style="stop-color:#CD1F26"/>
		</linearGradient>
		<path style="fill-rule:evenodd;clip-rule:evenodd;fill:url(#SVGID_00000059272325837356387090000010576662502581223590_);" d="
			M524.93,381.13c4.18,0,7.59-3.41,7.59-7.59c0-4.18-3.41-7.59-7.59-7.59s-7.59,3.41-7.59,7.59
			C517.34,377.72,520.75,381.13,524.93,381.13z"/>
	</g>
	<g>
		<text transform="matrix(1 0 0 1 561.8831 374.5925)"><tspan x="0" y="0" style="fill:#E46A30; font-family:'GothamPro-Medium'; font-size:21.2577px;">I</tspan><tspan x="6.74" y="0" style="fill:#E46A30; font-family:'GothamPro-Medium'; font-size:21.2577px;">NGENIERÍA DE SOFTWARE</tspan></text>
		<rect x="562.99" y="358.76" class="st28" width="2.61" height="14.88"/>
		<polygon class="st28" points="569.58,373.64 572.15,373.64 572.15,363.05 580.36,373.64 582.55,373.64 582.55,358.76 
			579.97,358.76 579.97,369.05 572,358.76 569.58,358.76 		"/>
		<path class="st28" d="M593.43,373.89c2.64,0,4.74-1.06,6.21-2.32v-6.25h-6.33v2.27h3.81v2.78c-0.91,0.68-2.19,1.13-3.59,1.13
			c-3.04,0-5.06-2.25-5.06-5.31c0-2.89,2.08-5.29,4.83-5.29c1.89,0,3.02,0.62,4.17,1.59l1.66-1.98c-1.53-1.3-3.13-2.02-5.72-2.02
			c-4.49,0-7.67,3.53-7.67,7.7C585.71,370.58,588.78,373.89,593.43,373.89z"/>
		<polygon class="st28" points="603.04,373.64 614.18,373.64 614.18,371.3 605.65,371.3 605.65,367.3 613.12,367.3 613.12,364.96 
			605.65,364.96 605.65,361.1 614.07,361.1 614.07,358.76 603.04,358.76 		"/>
		<polygon class="st28" points="617.28,373.64 619.85,373.64 619.85,363.05 628.06,373.64 630.25,373.64 630.25,358.76 
			627.68,358.76 627.68,369.05 619.7,358.76 617.28,358.76 		"/>
		<rect x="634.22" y="358.76" class="st28" width="2.61" height="14.88"/>
		<polygon class="st28" points="640.81,373.64 651.95,373.64 651.95,371.3 643.43,371.3 643.43,367.3 650.89,367.3 650.89,364.96 
			643.43,364.96 643.43,361.1 651.85,361.1 651.85,358.76 640.81,358.76 		"/>
		<path class="st28" d="M655.06,373.64h2.61v-5.19h3.23l3.7,5.19h3.08l-4.02-5.63c2.08-0.6,3.55-2.06,3.55-4.51
			c0-2.87-2.04-4.74-5.53-4.74h-6.63V373.64L655.06,373.64z M657.67,366.13v-5h3.81c1.93,0,3.08,0.87,3.08,2.47
			c0,1.55-1.19,2.53-3.06,2.53H657.67z"/>
		<path class="st28" d="M670.58,373.64h2.61v-14.88h-2.61V373.64L670.58,373.64z M670.81,357.52h2l2.59-2.44l-2.34-1.04
			L670.81,357.52z"/>
		<path class="st28" d="M675.89,373.64h2.68l1.53-3.59h7.04l1.51,3.59h2.76l-6.55-14.99h-2.42L675.89,373.64L675.89,373.64z
			 M681.06,367.73l2.55-5.95l2.57,5.95H681.06z"/>
		<path class="st28" d="M700.34,373.64h5.55c4.68,0,7.91-3.25,7.91-7.44c0-4.23-3.23-7.44-7.91-7.44h-5.55V373.64L700.34,373.64z
			 M702.95,371.26v-10.12h2.93c3.13,0,5.17,2.15,5.17,5.06c0,2.95-2.04,5.06-5.17,5.06H702.95z"/>
		<polygon class="st28" points="716.96,373.64 728.1,373.64 728.1,371.3 719.57,371.3 719.57,367.3 727.04,367.3 727.04,364.96 
			719.57,364.96 719.57,361.1 727.99,361.1 727.99,358.76 716.96,358.76 		"/>
		<path class="st28" d="M742.79,373.85c3.12,0,5.31-1.66,5.31-4.44c0-2.51-1.64-3.64-4.78-4.4c-2.85-0.68-3.53-1.19-3.53-2.34
			c0-1.02,0.89-1.81,2.42-1.81c1.36,0,2.7,0.53,4.04,1.53l1.4-1.98c-1.51-1.21-3.23-1.87-5.4-1.87c-2.95,0-5.08,1.76-5.08,4.32
			c0,2.78,1.79,3.72,4.95,4.46c2.76,0.66,3.36,1.23,3.36,2.3c0,1.17-1.02,1.91-2.64,1.91c-1.85,0-3.27-0.7-4.7-1.93l-1.57,1.87
			C738.37,373.06,740.51,373.85,742.79,373.85z"/>
		<path class="st28" d="M758.28,373.89c4.57,0,7.8-3.51,7.8-7.7c0-4.23-3.19-7.7-7.76-7.7c-4.57,0-7.8,3.51-7.8,7.7
			C750.53,370.43,753.71,373.89,758.28,373.89L758.28,373.89z M758.33,371.49c-2.95,0-5.06-2.4-5.06-5.29
			c0-2.93,2.06-5.29,5.02-5.29c2.95,0,5.06,2.4,5.06,5.29C763.34,369.13,761.28,371.49,758.33,371.49z"/>
		<polygon class="st28" points="769.25,373.64 771.87,373.64 771.87,367.58 779.37,367.58 779.37,365.2 771.87,365.2 771.87,361.14 
			780.33,361.14 780.33,358.76 769.25,358.76 		"/>
		<polygon class="st28" points="786.85,373.64 789.49,373.64 789.49,361.18 794.21,361.18 794.21,358.76 782.14,358.76 
			782.14,361.18 786.85,361.18 		"/>
		<polygon class="st28" points="801.01,373.74 803.27,373.74 806.92,363.05 810.58,373.74 812.83,373.74 818.02,358.76 
			815.28,358.76 811.73,369.79 808.07,358.71 805.86,358.71 802.2,369.79 798.65,358.76 795.83,358.76 		"/>
		<path class="st28" d="M817.51,373.64h2.68l1.53-3.59h7.04l1.51,3.59h2.76l-6.55-14.99h-2.42L817.51,373.64L817.51,373.64z
			 M822.67,367.73l2.55-5.95l2.57,5.95H822.67z"/>
		<path class="st28" d="M835.58,373.64h2.61v-5.19h3.23l3.7,5.19h3.08l-4.02-5.63c2.08-0.6,3.55-2.06,3.55-4.51
			c0-2.87-2.04-4.74-5.53-4.74h-6.63V373.64L835.58,373.64z M838.19,366.13v-5H842c1.93,0,3.08,0.87,3.08,2.47
			c0,1.55-1.19,2.53-3.06,2.53H838.19z"/>
		<polygon class="st28" points="850.95,373.64 862.09,373.64 862.09,371.3 853.56,371.3 853.56,367.3 861.02,367.3 861.02,364.96 
			853.56,364.96 853.56,361.1 861.98,361.1 861.98,358.76 850.95,358.76 		"/>
	</g>
</g>
<g>
	
		<linearGradient id="SVGID_00000062176440115674931480000016951663625286370454_" gradientUnits="userSpaceOnUse" x1="134.2479" y1="111.9163" x2="97.001" y2="96.1059">
		<stop  offset="0" style="stop-color:#FAA21B"/>
		<stop  offset="1" style="stop-color:#CD1F26"/>
	</linearGradient>
	
		<circle style="fill-rule:evenodd;clip-rule:evenodd;fill:url(#SVGID_00000062176440115674931480000016951663625286370454_);" cx="115.62" cy="104.01" r="19.34"/>
	
		<linearGradient id="SVGID_00000037687697109163783760000010742053578178536833_" gradientUnits="userSpaceOnUse" x1="207.007" y1="181.853" x2="21.8383" y2="103.2535">
		<stop  offset="0" style="stop-color:#FAA21B"/>
		<stop  offset="1" style="stop-color:#CD1F26"/>
	</linearGradient>
	<path style="fill-rule:evenodd;clip-rule:evenodd;fill:url(#SVGID_00000037687697109163783760000010742053578178536833_);" d="
		M146.94,160.55c-4.37-3.11-7.49-6.41-12.59-8.72c-5.59-2.53-13.33-3.88-20.99-3.75c-6.88,0.11-13.69,1.4-18.83,4.08
		c-6.66,3.46-12.86,11.15-15.9,17.87c-5.41,11.95-5.82,28.02,0.32,39.82c5.14,9.89,14.03,13.32,14.18,26.09
		c0.15,12.87-10.16,23.42-23.03,23.57c-12.87,0.15-23.42-10.17-23.56-23.03c-0.15-12.8,10.06-17.85,14.57-28.58
		c4.16-9.89,3.84-22.55,0.45-32.62c-2.31-6.89-6.36-11.26-9.81-15.7c-4.18-4.16-6.8-9.89-6.87-16.26
		c-0.14-12.87,10.17-23.42,23.03-23.56c5.11-0.06,8.98,1.54,12.48,3.76c1.25,0.72,2.42,1.55,3.51,2.48
		c3.87,2.94,7.62,6.25,12.6,8.34c9.89,4.16,22.55,3.84,32.62,0.45c5.93-1.99,9.99-5.26,13.83-8.33c3.04-4.08,6.59-7.96,8.79-13.18
		c4.16-9.89,3.84-22.55,0.45-32.62c-4.58-13.63-15.92-17.41-16.08-31.3c-0.14-12.87,10.17-23.42,23.04-23.57
		c12.87-0.14,23.42,10.17,23.57,23.04c0.15,12.84-8.82,16.36-13.45,26.59c-5.41,11.95-5.82,28.02,0.32,39.82
		c2.22,4.26,5.13,7.32,7.74,10.45c4.06,4.14,6.59,9.79,6.66,16.05c0.14,12.87-10.17,23.42-23.04,23.56
		C154.68,165.36,150.63,163.26,146.94,160.55z"/>
	
		<linearGradient id="SVGID_00000174595352034330376700000018007653402068465847_" gradientUnits="userSpaceOnUse" x1="134.2487" y1="195.8437" x2="97.0018" y2="180.0333">
		<stop  offset="0" style="stop-color:#FAA21B"/>
		<stop  offset="1" style="stop-color:#CD1F26"/>
	</linearGradient>
	<path style="fill-rule:evenodd;clip-rule:evenodd;fill:url(#SVGID_00000174595352034330376700000018007653402068465847_);" d="
		M115.62,207.28c10.65,0,19.34-8.69,19.34-19.34s-8.69-19.34-19.34-19.34c-10.65,0-19.34,8.69-19.34,19.34
		S104.97,207.28,115.62,207.28z"/>
</g>
<text transform="matrix(1 0 0 1 558.4442 348.2044)"><tspan x="0" y="0" style="font-family:'GothamPro-Medium'; font-size:31.1996px;">E</tspan><tspan x="20.9" y="0" style="font-family:'GothamPro-Medium'; font-size:31.1996px;">LPROGRAMADOR</tspan></text>
<g>
	<g>
		
			<linearGradient id="SVGID_00000166653226264651115870000014816626459282750848_" gradientUnits="userSpaceOnUse" x1="-29.017" y1="430.1261" x2="-43.6335" y2="423.9218">
			<stop  offset="0" style="stop-color:#FAA21B"/>
			<stop  offset="1" style="stop-color:#CD1F26"/>
		</linearGradient>
		<path style="fill-rule:evenodd;clip-rule:evenodd;fill:url(#SVGID_00000166653226264651115870000014816626459282750848_);" d="
			M-36.33,434.61c4.18,0,7.59-3.41,7.59-7.59c0-4.18-3.41-7.59-7.59-7.59c-4.18,0-7.59,3.41-7.59,7.59
			C-43.92,431.2-40.51,434.61-36.33,434.61z"/>
		
			<linearGradient id="SVGID_00000176014479216209664650000002288750947299788175_" gradientUnits="userSpaceOnUse" x1="-0.383" y1="457.5674" x2="-73.0437" y2="426.7248">
			<stop  offset="0" style="stop-color:#FAA21B"/>
			<stop  offset="1" style="stop-color:#CD1F26"/>
		</linearGradient>
		<path style="fill-rule:evenodd;clip-rule:evenodd;fill:url(#SVGID_00000176014479216209664650000002288750947299788175_);" d="
			M-23.95,449.21c-1.71-1.22-2.94-2.51-4.94-3.42c-2.19-0.99-5.23-1.52-8.23-1.47c-2.7,0.04-5.37,0.55-7.39,1.6
			c-2.61,1.36-5.05,4.38-6.24,7.01c-2.12,4.69-2.28,10.99,0.13,15.62c2.02,3.88,5.51,5.23,5.56,10.24c0.06,5.05-3.99,9.19-9.04,9.25
			c-5.05,0.06-9.19-3.99-9.25-9.04c-0.06-5.02,3.95-7,5.72-11.22c1.63-3.88,1.51-8.85,0.18-12.8c-0.91-2.7-2.49-4.42-3.85-6.16
			c-1.64-1.63-2.67-3.88-2.7-6.38c-0.06-5.05,3.99-9.19,9.04-9.25c2-0.02,3.52,0.6,4.9,1.47c0.49,0.28,0.95,0.61,1.38,0.97
			c1.52,1.15,2.99,2.45,4.94,3.27c3.88,1.63,8.85,1.51,12.8,0.18c2.33-0.78,3.92-2.06,5.43-3.27c1.19-1.6,2.58-3.12,3.45-5.17
			c1.63-3.88,1.51-8.85,0.18-12.8c-1.8-5.35-6.25-6.83-6.31-12.28c-0.06-5.05,3.99-9.19,9.04-9.25c5.05-0.06,9.19,3.99,9.25,9.04
			c0.06,5.04-3.46,6.42-5.28,10.43c-2.12,4.69-2.28,10.99,0.13,15.62c0.87,1.67,2.01,2.87,3.04,4.1c1.59,1.62,2.59,3.84,2.61,6.3
			c0.06,5.05-3.99,9.19-9.04,9.25C-20.92,451.1-22.5,450.27-23.95,449.21z"/>
		
			<linearGradient id="SVGID_00000078761011480134620350000010434367845278812329_" gradientUnits="userSpaceOnUse" x1="-29.0167" y1="463.0506" x2="-43.633" y2="456.8463">
			<stop  offset="0" style="stop-color:#FAA21B"/>
			<stop  offset="1" style="stop-color:#CD1F26"/>
		</linearGradient>
		<path style="fill-rule:evenodd;clip-rule:evenodd;fill:url(#SVGID_00000078761011480134620350000010434367845278812329_);" d="
			M-36.32,467.54c4.18,0,7.59-3.41,7.59-7.59c0-4.18-3.41-7.59-7.59-7.59s-7.59,3.41-7.59,7.59
			C-43.91,464.13-40.51,467.54-36.32,467.54z"/>
	</g>
	<g>
		<text transform="matrix(1 0 0 1 0.6313 461.002)"><tspan x="0" y="0" style="fill:#E46A30; font-family:'GothamPro-Medium'; font-size:21.2577px;">I</tspan><tspan x="6.74" y="0" style="fill:#E46A30; font-family:'GothamPro-Medium'; font-size:21.2577px;">NGENIERÍA DE SOFTWARE</tspan></text>
		<rect x="1.74" y="445.17" class="st28" width="2.61" height="14.88"/>
		<polygon class="st28" points="8.33,460.05 10.9,460.05 10.9,449.46 19.11,460.05 21.3,460.05 21.3,445.17 18.72,445.17 
			18.72,455.46 10.75,445.17 8.33,445.17 		"/>
		<path class="st28" d="M32.18,460.3c2.64,0,4.74-1.06,6.21-2.32v-6.25h-6.33v2.27h3.81v2.78c-0.91,0.68-2.19,1.13-3.59,1.13
			c-3.04,0-5.06-2.25-5.06-5.31c0-2.89,2.08-5.29,4.83-5.29c1.89,0,3.02,0.62,4.17,1.59l1.66-1.98c-1.53-1.3-3.13-2.02-5.72-2.02
			c-4.49,0-7.67,3.53-7.67,7.7C24.46,456.99,27.52,460.3,32.18,460.3z"/>
		<polygon class="st28" points="41.79,460.05 52.93,460.05 52.93,457.71 44.4,457.71 44.4,453.71 51.86,453.71 51.86,451.37 
			44.4,451.37 44.4,447.51 52.82,447.51 52.82,445.17 41.79,445.17 		"/>
		<polygon class="st28" points="56.03,460.05 58.6,460.05 58.6,449.46 66.81,460.05 69,460.05 69,445.17 66.43,445.17 66.43,455.46 
			58.45,445.17 56.03,445.17 		"/>
		<rect x="72.97" y="445.17" class="st28" width="2.61" height="14.88"/>
		<polygon class="st28" points="79.56,460.05 90.7,460.05 90.7,457.71 82.18,457.71 82.18,453.71 89.64,453.71 89.64,451.37 
			82.18,451.37 82.18,447.51 90.6,447.51 90.6,445.17 79.56,445.17 		"/>
		<path class="st28" d="M93.81,460.05h2.61v-5.19h3.23l3.7,5.19h3.08l-4.02-5.63c2.08-0.6,3.55-2.06,3.55-4.51
			c0-2.87-2.04-4.74-5.53-4.74h-6.63V460.05L93.81,460.05z M96.42,452.54v-5h3.81c1.93,0,3.08,0.87,3.08,2.47
			c0,1.55-1.19,2.53-3.06,2.53H96.42z"/>
		<path class="st28" d="M109.32,460.05h2.61v-14.88h-2.61V460.05L109.32,460.05z M109.56,443.93h2l2.59-2.44l-2.34-1.04
			L109.56,443.93z"/>
		<path class="st28" d="M114.64,460.05h2.68l1.53-3.59h7.04l1.51,3.59h2.76l-6.55-14.99h-2.42L114.64,460.05L114.64,460.05z
			 M119.8,454.14l2.55-5.95l2.57,5.95H119.8z"/>
		<path class="st28" d="M139.08,460.05h5.55c4.68,0,7.91-3.25,7.91-7.44c0-4.23-3.23-7.44-7.91-7.44h-5.55V460.05L139.08,460.05z
			 M141.7,457.67v-10.12h2.93c3.13,0,5.17,2.15,5.17,5.06c0,2.95-2.04,5.06-5.17,5.06H141.7z"/>
		<polygon class="st28" points="155.71,460.05 166.85,460.05 166.85,457.71 158.32,457.71 158.32,453.71 165.78,453.71 
			165.78,451.37 158.32,451.37 158.32,447.51 166.74,447.51 166.74,445.17 155.71,445.17 		"/>
		<path class="st28" d="M181.54,460.26c3.12,0,5.31-1.66,5.31-4.44c0-2.51-1.64-3.64-4.78-4.4c-2.85-0.68-3.53-1.19-3.53-2.34
			c0-1.02,0.89-1.81,2.42-1.81c1.36,0,2.7,0.53,4.04,1.53l1.4-1.98c-1.51-1.21-3.23-1.87-5.4-1.87c-2.95,0-5.08,1.76-5.08,4.32
			c0,2.78,1.79,3.72,4.95,4.46c2.76,0.66,3.36,1.23,3.36,2.3c0,1.17-1.02,1.91-2.64,1.91c-1.85,0-3.27-0.7-4.7-1.93l-1.57,1.87
			C177.11,459.47,179.26,460.26,181.54,460.26z"/>
		<path class="st28" d="M197.03,460.3c4.57,0,7.8-3.51,7.8-7.7c0-4.23-3.19-7.7-7.76-7.7c-4.57,0-7.8,3.51-7.8,7.7
			C189.27,456.84,192.46,460.3,197.03,460.3L197.03,460.3z M197.08,457.9c-2.95,0-5.06-2.4-5.06-5.29c0-2.93,2.06-5.29,5.02-5.29
			c2.95,0,5.06,2.4,5.06,5.29C202.09,455.54,200.03,457.9,197.08,457.9z"/>
		<polygon class="st28" points="208,460.05 210.62,460.05 210.62,453.99 218.12,453.99 218.12,451.61 210.62,451.61 210.62,447.55 
			219.08,447.55 219.08,445.17 208,445.17 		"/>
		<polygon class="st28" points="225.6,460.05 228.24,460.05 228.24,447.59 232.96,447.59 232.96,445.17 220.88,445.17 
			220.88,447.59 225.6,447.59 		"/>
		<polygon class="st28" points="239.76,460.15 242.01,460.15 245.67,449.46 249.33,460.15 251.58,460.15 256.77,445.17 
			254.03,445.17 250.48,456.2 246.82,445.12 244.61,445.12 240.95,456.2 237.4,445.17 234.57,445.17 		"/>
		<path class="st28" d="M256.26,460.05h2.68l1.53-3.59h7.04l1.51,3.59h2.76l-6.55-14.99h-2.42L256.26,460.05L256.26,460.05z
			 M261.42,454.14l2.55-5.95l2.57,5.95H261.42z"/>
		<path class="st28" d="M274.33,460.05h2.61v-5.19h3.23l3.7,5.19h3.08l-4.02-5.63c2.08-0.6,3.55-2.06,3.55-4.51
			c0-2.87-2.04-4.74-5.53-4.74h-6.63V460.05L274.33,460.05z M276.94,452.54v-5h3.81c1.93,0,3.08,0.87,3.08,2.47
			c0,1.55-1.19,2.53-3.06,2.53H276.94z"/>
		<polygon class="st28" points="289.7,460.05 300.83,460.05 300.83,457.71 292.31,457.71 292.31,453.71 299.77,453.71 
			299.77,451.37 292.31,451.37 292.31,447.51 300.73,447.51 300.73,445.17 289.7,445.17 		"/>
	</g>
</g>
<text transform="matrix(1 0 0 1 -2.8076 434.614)"><tspan x="0" y="0" style="fill:#FFFFFF; font-family:'GothamPro-Medium'; font-size:31.1996px;">E</tspan><tspan x="20.9" y="0" style="fill:#FFFFFF; font-family:'GothamPro-Medium'; font-size:31.1996px;">LPROGRAMADOR</tspan></text>
</svg>
